<?xml version="1.0" standalone="no"?>
<!DOCTYPE svg PUBLIC "-//W3C//DTD SVG 20010904//EN"
 "http://www.w3.org/TR/2001/REC-SVG-20010904/DTD/svg10.dtd">
<svg version="1.0" xmlns="http://www.w3.org/2000/svg"
 width="735.000000pt" height="490.000000pt" viewBox="0 0 735.000000 490.000000"
 preserveAspectRatio="xMidYMid meet">

<g transform="translate(0.000000,490.000000) scale(0.100000,-0.100000)"
fill="#000000" stroke="none">
<path d="M170 4891 c0 -24 24 -71 38 -75 10 -2 41 -8 70 -11 28 -4 53 -12 53
-18 1 -7 3 -36 4 -66 3 -49 8 -58 50 -99 l46 -46 -26 -15 c-29 -18 -40 -49
-31 -85 7 -29 56 -49 102 -40 31 6 33 4 52 -39 11 -25 30 -50 41 -56 12 -7 21
-17 21 -24 1 -7 10 -23 21 -36 16 -19 29 -24 56 -23 41 3 109 -20 176 -61 51
-31 55 -38 31 -58 -12 -9 -14 -23 -10 -49 5 -35 4 -37 -32 -46 -39 -10 -48
-27 -38 -70 4 -13 14 -24 23 -24 15 0 15 -2 -2 -14 -11 -8 -16 -20 -12 -29 3
-9 -2 -26 -12 -39 -44 -57 -29 -130 35 -167 19 -11 37 -29 41 -38 9 -25 23
-33 61 -33 26 0 36 -7 52 -32 26 -43 25 -71 -4 -105 -22 -26 -29 -28 -105 -29
-45 0 -81 3 -81 7 0 3 -25 10 -56 14 -33 4 -57 12 -61 21 -8 21 -65 46 -77 34
-5 -5 -39 -7 -81 -3 -70 5 -72 5 -108 -27 -32 -27 -43 -32 -84 -30 -78 4 -90
1 -96 -20 -3 -11 0 -20 6 -20 7 0 5 -5 -3 -10 -8 -5 -42 -10 -76 -10 -50 0
-64 -4 -82 -23 -31 -33 -29 -75 3 -83 28 -7 33 -31 9 -48 -19 -15 -10 -39 22
-56 22 -12 29 -27 25 -57 -1 -7 23 -24 52 -37 30 -13 58 -29 61 -35 13 -21 63
-12 84 14 19 24 52 34 52 16 0 -12 81 -41 116 -41 17 0 43 9 58 21 17 13 35
19 48 15 12 -3 27 -1 34 5 19 16 24 -3 13 -51 -6 -24 -8 -54 -5 -67 4 -13 -2
-36 -15 -58 -12 -19 -22 -49 -24 -65 -1 -16 -9 -39 -17 -52 -8 -13 -22 -43
-31 -68 -16 -44 -16 -46 8 -94 22 -43 24 -58 19 -111 -6 -57 -5 -61 17 -72 13
-6 33 -28 44 -49 10 -22 34 -62 52 -90 18 -28 33 -56 33 -62 0 -6 16 -26 35
-43 43 -40 75 -104 75 -153 0 -47 20 -85 59 -114 17 -12 46 -46 66 -75 19 -28
50 -75 69 -103 29 -44 34 -58 29 -92 -8 -57 42 -202 70 -202 7 0 33 11 59 25
32 17 56 23 75 19 19 -4 43 3 76 20 26 14 56 26 66 26 10 0 26 9 36 20 10 11
43 27 74 36 97 28 112 36 127 65 8 16 21 29 30 29 8 0 17 7 20 15 4 10 20 15
44 15 26 0 48 8 67 24 15 12 42 27 58 33 17 5 34 19 40 31 6 14 22 24 43 28
37 7 52 28 52 73 0 23 5 31 18 31 13 0 29 20 50 60 32 60 41 110 22 110 -6 0
-24 14 -42 30 -18 17 -47 33 -67 36 -45 7 -75 48 -85 117 -4 26 -11 47 -16 47
-4 0 -22 -18 -40 -39 -38 -49 -88 -81 -126 -81 -16 -1 -46 -7 -66 -14 -30 -11
-40 -11 -48 -1 -8 9 -6 14 5 19 21 8 21 109 0 126 -12 10 -18 10 -30 0 -8 -7
-15 -18 -15 -25 0 -7 -6 -18 -14 -24 -11 -9 -15 -5 -20 19 -5 30 -92 172 -108
178 -4 2 -8 11 -8 21 0 9 -6 23 -12 29 -10 10 -6 18 16 37 32 27 42 30 51 15
4 -6 15 -8 26 -5 12 4 19 2 19 -6 0 -7 17 -41 37 -76 26 -43 46 -66 62 -70 14
-3 30 -10 36 -15 5 -4 30 -24 53 -43 36 -29 52 -35 91 -35 26 0 51 4 57 9 5 5
19 12 31 15 18 6 25 1 38 -23 20 -39 44 -51 130 -68 134 -27 242 -33 337 -19
101 15 125 12 133 -15 4 -10 13 -19 21 -19 8 0 14 -5 14 -10 0 -6 12 -23 28
-38 15 -15 32 -36 37 -47 8 -14 23 -21 55 -24 l45 -3 -35 -13 c-43 -15 -51
-41 -16 -55 15 -5 42 -25 61 -45 20 -19 42 -35 50 -35 8 0 30 23 48 50 l34 50
7 -122 c9 -166 24 -221 107 -405 39 -87 86 -193 104 -236 53 -126 84 -145 131
-79 15 20 43 51 61 67 26 23 36 42 42 80 5 28 15 64 22 82 11 26 11 46 0 108
-13 81 -7 105 29 105 9 0 25 9 34 19 10 11 28 22 40 25 13 3 29 18 35 33 7 16
30 42 53 58 23 17 63 49 89 72 26 23 56 44 66 47 10 3 27 25 38 48 26 57 78
83 155 79 25 -1 62 5 83 14 37 15 39 15 62 -7 14 -13 25 -31 25 -41 0 -11 18
-39 40 -64 22 -25 40 -52 40 -59 0 -7 11 -30 25 -50 28 -41 28 -43 15 -99 -7
-31 -6 -45 6 -63 22 -34 58 -28 109 19 52 48 71 46 80 -8 4 -21 19 -81 33
-133 27 -102 30 -151 17 -272 l-8 -77 60 -59 c52 -52 61 -65 65 -105 3 -26 18
-76 33 -112 25 -57 34 -68 79 -93 28 -16 65 -37 82 -47 56 -34 83 0 43 54 -12
17 -24 53 -29 93 -9 77 -20 99 -59 128 -17 11 -32 28 -35 38 -4 9 -22 27 -42
40 -21 14 -42 40 -53 65 -10 23 -28 51 -40 61 -27 24 -26 29 5 148 25 91 44
125 44 78 0 -12 7 -20 17 -20 9 0 33 -7 52 -16 28 -12 41 -27 55 -61 21 -51
56 -78 97 -75 32 3 34 0 18 -29 -32 -60 41 -82 92 -28 16 17 29 35 29 39 0 4
19 15 42 25 50 20 87 47 110 83 24 36 23 128 0 189 -23 59 -90 150 -142 192
-71 56 -63 98 35 189 l57 53 37 -14 c23 -9 37 -22 39 -36 4 -24 40 -47 52 -34
4 4 10 17 12 28 2 15 14 21 45 26 22 3 59 17 81 31 21 15 60 29 86 33 25 4 56
15 69 25 12 9 39 23 59 29 47 16 131 90 164 147 14 24 30 44 35 44 5 0 19 19
29 43 11 23 36 62 55 87 41 52 51 74 61 125 7 41 -7 59 -38 49 -24 -7 -23 4 3
24 11 10 24 37 30 60 9 41 8 46 -20 78 -16 18 -39 54 -50 79 -12 27 -30 50
-45 57 -38 16 -33 46 17 100 31 34 52 48 82 53 46 9 75 30 75 55 0 26 -19 36
-85 48 -48 8 -64 8 -82 -4 -13 -8 -23 -19 -23 -24 0 -6 -7 -10 -15 -10 -8 0
-15 9 -15 19 0 36 -12 51 -40 51 -32 0 -55 23 -46 46 4 10 13 13 26 9 13 -4
29 3 52 24 49 46 100 87 125 100 31 16 39 -3 14 -35 -12 -15 -21 -35 -21 -46
0 -11 -5 -29 -11 -40 -7 -13 -7 -24 -1 -30 11 -11 40 2 92 43 50 39 97 49 136
29 l31 -16 -15 -48 c-18 -55 -9 -80 29 -82 58 -3 92 -33 54 -48 -11 -4 -15
-20 -14 -63 1 -32 -2 -70 -6 -86 -10 -36 9 -57 52 -57 43 0 79 19 120 63 68
73 65 108 -23 259 -6 10 -21 29 -33 42 l-21 22 39 32 c22 18 44 32 50 32 16 0
51 51 51 74 0 11 6 32 13 46 25 47 42 74 55 89 18 19 69 22 83 5 22 -27 57
-14 146 55 95 74 116 99 223 266 96 151 105 173 129 313 26 157 63 236 73 154
6 -56 3 -348 -6 -422 -8 -80 4 -107 33 -73 16 20 21 21 31 8 7 -8 21 -15 31
-15 23 0 25 27 5 75 -24 55 -24 140 -2 171 14 18 15 18 45 -10 24 -23 34 -27
43 -18 9 9 6 24 -15 65 -15 30 -30 69 -34 88 -3 19 -13 44 -21 57 -10 16 -16
56 -18 125 -6 187 -27 261 -53 185 -6 -18 -21 -40 -33 -50 -18 -13 -22 -26
-21 -70 1 -29 -1 -44 -4 -33 -2 11 -11 25 -19 31 -13 10 -13 12 0 17 22 9 7
46 -25 63 -16 8 -29 20 -29 28 0 19 -33 46 -57 46 -11 0 -32 -13 -46 -30 -30
-33 -47 -38 -47 -15 0 9 -9 15 -25 15 -20 0 -25 5 -25 24 0 27 -33 56 -64 56
-20 0 -20 0 0 18 10 10 36 30 56 46 44 33 81 88 76 113 -3 14 -11 8 -32 -24
-15 -23 -44 -53 -65 -67 -56 -39 -94 -83 -88 -100 4 -9 22 -16 44 -18 35 -3
38 -6 39 -34 1 -38 12 -57 29 -50 7 2 16 -2 19 -10 11 -28 96 -4 109 31 10 25
38 17 50 -15 7 -18 21 -33 34 -36 26 -7 30 -19 8 -28 -23 -8 -18 -31 9 -46 36
-19 37 -44 5 -103 -16 -28 -29 -64 -29 -80 0 -36 -36 -198 -52 -234 -14 -29
-136 -220 -185 -287 -30 -41 -183 -166 -203 -166 -6 0 -19 9 -28 20 -16 18
-19 19 -44 6 l-28 -15 0 68 c0 70 15 102 37 80 6 -6 23 -9 38 -7 22 2 33 14
57 59 16 31 32 74 35 95 3 22 14 49 25 61 11 11 18 32 17 45 -2 12 0 29 4 36
10 15 1 32 -17 32 -7 0 -42 -13 -77 -29 -117 -52 -138 -50 -153 14 -7 27 -65
94 -84 96 -87 9 -115 43 -152 189 -27 107 -42 134 -89 166 -50 33 -160 50
-218 35 -82 -22 -143 -85 -94 -98 21 -5 31 -53 11 -53 -5 0 -10 -4 -10 -10 0
-5 -18 -35 -40 -66 -22 -32 -40 -68 -40 -81 0 -12 -5 -23 -11 -23 -6 0 -24 -9
-40 -21 l-29 -20 -37 25 c-29 20 -45 24 -74 20 -28 -5 -37 -2 -42 10 -10 26
-51 19 -98 -18 -28 -21 -61 -36 -89 -40 -25 -4 -64 -12 -87 -18 -61 -15 -104
-4 -128 35 -32 51 -77 68 -160 62 -38 -3 -86 -8 -106 -11 -43 -7 -76 18 -85
66 -5 25 -20 36 -94 75 -49 25 -94 45 -101 45 -7 0 -27 -11 -45 -25 -40 -31
-52 -79 -34 -136 7 -22 11 -41 8 -44 -2 -2 -43 -6 -91 -7 -80 -3 -88 -1 -102
20 -54 76 -192 68 -295 -18 -26 -22 -54 -40 -62 -40 -7 0 -31 -9 -53 -20 -22
-11 -41 -20 -42 -20 -2 0 -8 11 -13 25 -13 33 -36 42 -59 21 -21 -19 -20 -20
-76 50 -57 70 -73 84 -103 84 -16 0 -35 -7 -42 -15 -17 -20 -40 -19 -70 5 -28
22 -51 25 -67 9 -8 -8 -15 -3 -27 19 -9 17 -16 38 -16 46 0 22 -51 118 -79
149 -14 16 -38 35 -53 43 -22 11 -28 22 -28 46 0 30 -1 30 -36 25 -42 -7 -83
-31 -91 -55 -15 -40 -63 -45 -63 -7 0 20 -6 27 -29 31 -17 4 -32 12 -35 20 -7
18 -30 18 -46 -1 -20 -24 -30 -18 -30 20 0 53 -18 81 -60 94 -54 16 -70 14
-125 -19 -27 -16 -57 -30 -67 -30 -9 0 -58 -16 -108 -35 -69 -26 -107 -35
-153 -35 -76 0 -111 -16 -115 -52 -2 -18 4 -32 23 -46 l26 -21 -33 -3 c-29 -3
-33 -6 -33 -33 0 -20 -7 -33 -20 -40 -37 -19 -30 -48 20 -79 60 -38 57 -61 -7
-61 -25 0 -49 -3 -53 -7 -4 -3 -28 5 -53 18 -26 14 -53 22 -62 18 -8 -4 -28
-6 -45 -5 -16 1 -44 -6 -62 -16 -31 -16 -33 -16 -53 2 -11 10 -23 16 -26 13
-3 -3 -15 4 -28 17 -12 12 -39 28 -59 36 -20 7 -37 17 -37 21 0 14 -40 8 -46
-7 -5 -11 -16 -13 -43 -9 -34 5 -39 2 -93 -55 -33 -33 -58 -69 -58 -80 0 -21
0 -21 -20 -1 -11 11 -27 20 -35 20 -19 0 -55 -71 -55 -110 0 -17 -7 -41 -15
-54 -15 -22 -12 -56 5 -56 4 0 11 -11 14 -25 5 -21 12 -25 41 -25 26 0 38 -7
54 -29 12 -17 18 -36 15 -45 -4 -9 1 -25 10 -35 15 -16 15 -19 -1 -34 -10 -8
-31 -19 -48 -23 -52 -12 -61 -27 -63 -103 -1 -59 3 -75 24 -107 26 -38 36
-116 17 -135 -4 -4 -28 10 -52 31 -25 22 -48 40 -53 40 -4 0 -8 6 -8 14 0 20
-49 34 -85 24 -24 -6 -40 -3 -78 18 -32 17 -69 27 -112 30 -56 4 -69 9 -102
40 -21 19 -48 43 -60 54 -29 24 -30 71 -3 95 11 10 20 30 20 45 0 19 7 30 25
38 34 16 31 28 -10 43 -43 16 -49 49 -9 49 14 0 34 5 46 11 16 9 19 17 13 45
-4 23 -1 41 10 56 20 30 19 35 -11 63 -45 42 -154 89 -207 89 -45 1 -49 3 -64
39 -9 20 -20 37 -25 37 -14 0 -48 43 -48 61 0 33 -30 52 -74 46 -75 -10 -102
33 -46 73 16 12 30 27 30 33 -1 15 -46 67 -59 67 -22 0 -41 46 -41 102 0 68
-15 83 -97 94 -46 6 -53 10 -62 35 -9 26 -31 41 -31 20z m6927 -293 c2 -24 4
-92 6 -153 3 -111 31 -227 64 -266 20 -24 15 -31 -11 -14 -23 15 -25 15 -45
-11 -36 -46 -38 -94 -6 -214 5 -21 5 -22 -5 -7 -6 9 -16 17 -22 17 -6 0 -17
-8 -24 -17 -12 -16 -13 -14 -6 17 10 47 8 424 -3 528 -8 80 -7 83 14 89 11 3
21 13 21 23 0 16 9 50 14 50 1 0 2 -19 3 -42z m-1075 -80 c49 -28 61 -50 83
-154 9 -45 29 -103 44 -129 23 -43 32 -50 88 -69 67 -23 96 -51 108 -104 4
-18 17 -39 30 -48 21 -14 29 -13 86 6 35 12 74 28 86 36 12 8 26 14 31 14 16
0 8 -55 -10 -73 -9 -9 -21 -39 -27 -67 -11 -53 -44 -124 -61 -135 -5 -3 -19 1
-31 9 -45 31 -79 -19 -79 -118 0 -61 -11 -89 -25 -66 -13 21 -47 10 -57 -18
-8 -21 -24 -34 -60 -48 -31 -12 -48 -24 -48 -36 0 -14 -5 -15 -32 -7 -30 8
-36 6 -78 -34 -59 -57 -130 -107 -151 -107 -9 0 -39 -15 -66 -34 l-50 -34 5
26 c3 15 11 36 18 47 23 32 18 64 -12 71 -19 5 -35 -1 -67 -25 -23 -18 -54
-40 -70 -49 -15 -9 -30 -25 -33 -34 -4 -13 -16 -18 -39 -18 -29 0 -36 -4 -41
-25 -3 -14 -1 -39 6 -56 11 -26 18 -30 41 -27 23 4 28 0 33 -23 3 -15 14 -33
26 -39 17 -9 24 -6 44 15 24 25 27 26 82 16 32 -6 59 -11 61 -11 2 0 3 -6 3
-14 0 -8 -14 -16 -33 -20 -52 -10 -92 -37 -132 -89 -43 -58 -42 -83 5 -115 21
-14 40 -38 48 -59 6 -20 24 -51 38 -70 31 -41 26 -84 -14 -118 -33 -29 -24
-55 19 -55 26 0 30 -3 24 -17 -4 -10 -11 -31 -16 -47 -5 -16 -27 -51 -49 -77
-23 -27 -47 -64 -56 -84 -8 -19 -18 -35 -22 -35 -4 0 -16 -16 -27 -36 -27 -50
-127 -140 -172 -154 -21 -7 -45 -18 -53 -25 -8 -7 -35 -16 -59 -20 -25 -4 -66
-20 -91 -36 -26 -16 -60 -29 -76 -29 -16 0 -40 -7 -52 -16 -21 -14 -24 -14
-40 4 -9 11 -46 27 -81 36 -65 16 -81 27 -81 57 0 17 -69 49 -107 49 -11 0
-37 -7 -56 -15 -20 -8 -49 -15 -65 -15 -53 0 -100 -26 -107 -60 -8 -35 -7 -35
-45 -15 -16 8 -35 12 -43 9 -10 -4 -18 8 -28 40 -7 25 -17 46 -21 46 -4 0 -8
6 -8 14 0 25 -27 44 -54 39 -32 -7 -33 6 -3 50 13 19 29 60 36 91 12 55 12 57
-17 104 -24 40 -34 48 -66 52 -26 4 -40 12 -49 30 -11 21 -20 25 -65 28 -48 3
-57 0 -90 -30 -20 -18 -56 -42 -80 -52 -42 -19 -45 -19 -93 -2 -41 15 -57 16
-92 7 -23 -6 -91 -10 -150 -8 -107 2 -109 3 -136 32 -15 17 -52 43 -82 59 -30
16 -61 35 -70 42 -8 8 -29 14 -45 14 -16 0 -52 11 -80 24 -42 19 -54 31 -68
66 -16 40 -16 44 0 61 13 15 14 24 5 50 -6 18 -11 43 -11 56 0 14 -9 36 -20
50 -11 14 -20 32 -20 40 0 7 -14 16 -31 20 -21 4 -39 18 -56 43 -13 21 -37 43
-53 50 -40 16 -63 45 -56 68 7 20 -21 63 -61 95 -13 10 -23 21 -23 25 0 4 16
24 35 45 27 30 41 37 70 37 23 0 48 9 68 24 18 13 70 43 117 66 47 24 93 51
102 62 9 11 20 44 24 74 6 51 4 72 -11 120 -7 24 27 44 75 44 38 0 60 24 60
66 0 19 7 50 14 69 16 38 32 42 85 24 25 -9 36 -8 56 5 20 13 25 25 25 60 0
37 6 50 40 85 22 22 46 41 52 41 7 -1 22 -15 33 -33 15 -24 31 -34 63 -42 38
-8 49 -17 80 -63 37 -57 41 -80 27 -159 l-8 -43 35 0 c43 0 167 -41 224 -75
30 -18 46 -35 54 -61 8 -22 27 -46 53 -65 l42 -30 106 7 c101 6 111 5 195 -24
139 -46 145 -47 216 -18 35 13 104 30 153 36 101 14 121 22 184 78 44 38 44
40 32 70 -13 31 -7 72 10 72 5 0 26 -7 45 -15 39 -16 41 -15 95 26 24 19 43
26 57 22 17 -4 31 4 60 35 39 43 76 62 119 62 41 0 103 22 103 37 0 19 -103
123 -122 123 -9 0 -23 -7 -31 -15 -12 -11 -27 -13 -62 -8 -44 6 -46 7 -40 32
4 14 15 45 25 69 19 42 19 42 60 36 30 -5 45 -3 58 9 9 9 29 20 44 26 20 7 27
17 26 33 -1 25 32 94 69 144 27 37 31 94 7 94 -14 0 -15 2 -3 17 28 33 71 44
152 39 56 -4 90 -12 119 -28z m-1462 -139 c61 -31 80 -46 85 -67 3 -15 16 -37
27 -49 25 -27 84 -30 167 -11 66 15 125 -6 160 -57 30 -44 83 -62 132 -47 19
6 62 16 95 21 47 7 74 19 109 46 l48 36 22 -21 c18 -17 30 -20 59 -15 35 7 50
-5 25 -21 -17 -10 -49 -92 -49 -124 0 -33 15 -44 74 -54 29 -6 42 -3 56 9 25
23 53 12 90 -35 34 -43 35 -42 -50 -55 -56 -9 -87 -25 -124 -64 -19 -20 -40
-31 -56 -31 -15 0 -44 -14 -66 -31 -27 -21 -44 -28 -59 -24 -86 28 -110 14
-101 -61 l6 -51 -54 -40 c-49 -36 -63 -41 -133 -47 -76 -7 -169 -30 -187 -47
-18 -16 -62 -9 -174 26 -107 34 -116 35 -214 30 -93 -6 -106 -4 -136 14 -21
14 -35 32 -39 51 -3 17 -20 43 -38 59 -41 36 -184 91 -237 91 -37 0 -39 2 -31
23 4 12 8 45 8 72 -1 77 -70 174 -125 175 -31 0 -44 9 -60 39 -11 21 -10 26 6
38 10 7 28 13 40 13 11 0 51 22 88 49 108 80 212 88 258 22 22 -31 67 -40 153
-32 91 9 100 16 86 67 -17 61 -13 93 14 119 13 14 29 25 36 25 6 0 46 -18 89
-41z m-2959 -445 c15 -13 24 -14 50 -5 42 14 50 7 43 -38 -5 -33 -3 -41 17
-55 13 -9 31 -16 41 -16 27 0 22 -25 -9 -45 -22 -15 -25 -15 -20 -2 9 24 -12
34 -86 42 -58 6 -68 4 -74 -11 -3 -9 -1 -25 6 -35 9 -16 8 -19 -9 -19 -22 0
-39 -28 -23 -39 5 -3 21 -27 36 -53 15 -27 34 -48 42 -48 8 0 24 -18 35 -41
20 -37 23 -40 52 -34 19 5 28 3 24 -3 -3 -5 6 -22 19 -36 36 -39 32 -52 -16
-54 -23 -1 -48 -7 -55 -13 -18 -15 -18 -38 1 -45 8 -4 15 -18 15 -32 0 -14 7
-33 15 -42 15 -16 35 -135 27 -158 -6 -18 -99 -14 -162 6 -31 9 -71 31 -89 48
-31 29 -32 33 -26 78 5 32 18 60 36 81 35 39 36 56 8 81 -12 10 -25 29 -30 42
-5 13 -22 31 -39 40 -16 9 -30 25 -30 35 0 10 -14 47 -31 82 -17 35 -27 69
-23 76 4 7 7 28 8 47 1 32 5 37 36 44 19 5 51 24 70 43 56 54 104 94 114 95 5
0 17 -7 27 -16z m486 -150 c26 -20 76 -64 111 -96 68 -66 66 -65 166 -37 45
13 50 13 60 -5 6 -10 23 -37 38 -60 15 -22 28 -51 28 -63 0 -26 62 -99 92
-109 15 -4 30 3 57 28 65 61 67 62 91 38 18 -18 30 -21 60 -16 29 4 41 2 54
-13 17 -18 17 -20 -3 -30 -11 -6 -35 -11 -54 -11 -28 0 -33 3 -33 23 1 16 -5
23 -22 25 -31 5 -92 -25 -92 -44 0 -20 -35 -48 -68 -54 -33 -6 -42 -43 -17
-70 23 -25 17 -103 -8 -108 -10 -2 -20 4 -24 15 -8 25 -44 63 -58 63 -7 0 -32
17 -56 39 -24 21 -61 44 -83 52 -40 14 -53 35 -65 99 -7 35 -7 35 -61 35 l-55
0 2 31 c2 27 -2 33 -42 53 -24 12 -47 26 -50 32 -9 14 -43 11 -52 -5 -4 -8
-19 -16 -33 -18 -19 -2 -27 -12 -35 -41 -6 -22 -18 -43 -27 -48 -13 -7 -16 0
-22 44 -3 28 -6 93 -6 143 l0 92 53 20 c45 18 71 26 99 31 3 0 28 -15 55 -35z
m-1009 -191 c35 -20 51 -23 86 -18 37 6 47 4 67 -17 13 -13 29 -36 36 -50 l12
-26 -62 -8 c-76 -10 -90 -9 -147 17 -41 19 -46 24 -46 54 0 19 -8 42 -17 53
-37 41 -5 39 71 -5z m1949 10 c21 -14 52 -19 141 -20 62 -2 121 -7 129 -12 14
-7 13 -11 -6 -27 -12 -11 -25 -18 -29 -18 -10 2 -181 -86 -187 -97 -4 -5 -23
-9 -44 -9 -31 0 -46 -7 -72 -34 -39 -39 -114 -62 -137 -43 -8 6 -39 11 -68 11
-43 0 -54 4 -52 15 2 11 17 14 65 12 69 -3 123 18 123 47 0 10 -13 31 -29 46
-24 23 -36 28 -60 23 -17 -4 -38 -4 -46 0 -13 5 -13 8 5 20 12 8 26 26 31 40
7 19 14 24 29 19 11 -3 28 -9 39 -12 10 -3 24 1 32 8 51 50 92 59 136 31z
m3303 -10 c0 -5 -11 -30 -25 -57 -14 -27 -25 -62 -25 -78 0 -22 -7 -31 -32
-41 -46 -20 -98 -68 -98 -91 0 -11 10 -30 21 -43 21 -22 21 -23 3 -29 -10 -3
-30 -11 -44 -16 -33 -15 -100 -16 -100 -3 0 5 7 28 15 50 20 56 19 64 -12 71
-45 11 -45 14 -9 43 19 15 46 42 61 59 24 29 30 31 69 26 38 -6 44 -3 59 19
11 17 30 29 52 33 29 5 37 12 42 35 5 25 23 42 23 22z m-4218 -83 c-5 -35 16
-50 69 -50 39 0 49 -3 49 -17 0 -9 9 -36 21 -59 15 -32 29 -46 55 -54 18 -6
53 -28 76 -47 24 -20 58 -42 76 -50 43 -18 43 -43 -1 -43 -37 0 -59 -19 -76
-62 -6 -16 -19 -28 -33 -30 -12 -2 -32 -17 -43 -35 -34 -55 -111 -36 -117 30
-2 24 -8 32 -23 32 -11 0 -34 15 -52 33 -17 17 -39 32 -48 32 -9 0 -29 10 -45
22 -16 11 -42 23 -57 24 -15 2 -44 6 -63 9 -30 6 -41 2 -77 -29 -22 -20 -46
-36 -51 -36 -5 0 -13 24 -16 53 -4 29 -14 66 -21 81 -8 16 -15 36 -15 46 0 10
-7 26 -16 34 -18 19 -10 23 46 28 29 3 35 7 38 28 2 15 -6 36 -18 49 -44 52
-14 56 34 5 57 -60 137 -56 154 9 6 23 15 33 33 35 13 2 28 10 32 19 14 23 93
-28 89 -57z m-1462 -18 c27 -21 157 -53 200 -50 14 1 39 -2 56 -6 27 -6 37 -2
66 22 l33 30 53 -20 c45 -17 52 -23 52 -46 0 -35 12 -53 47 -68 17 -8 22 -13
11 -13 -23 -1 -29 -28 -18 -76 5 -22 10 -53 10 -69 0 -28 -1 -28 -44 -22 -26
4 -47 3 -50 -3 -6 -10 -16 -11 -91 -12 -16 0 -51 -7 -77 -16 -38 -13 -52 -14
-73 -5 -19 9 -32 9 -46 1 -11 -5 -29 -7 -41 -3 -15 5 -26 0 -39 -17 -16 -20
-19 -21 -19 -6 0 23 -23 31 -49 18 -13 -7 -22 -8 -26 -1 -4 6 -26 0 -56 -16
-50 -25 -51 -25 -99 -9 -27 9 -54 23 -60 31 -18 21 -44 17 -68 -11 -24 -28
-63 -33 -82 -11 -6 8 -27 20 -46 26 -19 6 -34 16 -34 21 0 5 -11 27 -24 48
-16 25 -21 42 -15 48 18 18 -4 78 -29 81 -26 4 -27 10 -7 39 13 18 23 21 74
18 64 -4 101 14 101 49 0 15 7 17 55 11 50 -7 57 -5 92 23 46 36 60 40 147 36
50 -2 76 -8 96 -22z m784 -8 c6 -10 19 -31 29 -46 17 -26 17 -27 -8 -64 -14
-20 -25 -49 -26 -63 -1 -25 -1 -24 -10 5 -11 40 -33 49 -72 29 -27 -14 -31
-13 -43 3 -7 9 -14 22 -14 28 0 6 -9 19 -20 29 -29 26 -25 43 13 47 24 2 32 8
31 21 -2 17 0 17 15 3 24 -22 36 -20 55 10 19 28 34 28 50 -2z m-207 -56 c1
-13 11 -30 23 -40 11 -9 20 -22 20 -30 0 -8 5 -19 11 -25 6 -6 9 -17 7 -25 -3
-8 -11 -1 -21 19 -21 40 -31 46 -87 53 -40 4 -45 8 -48 32 -3 25 0 27 40 31
24 2 45 4 48 5 3 1 6 -8 7 -20z m1463 -22 c0 -3 -4 -8 -10 -11 -5 -3 -10 -1
-10 4 0 6 5 11 10 11 6 0 10 -2 10 -4z m33 -76 c32 0 62 -6 75 -16 16 -11 34
-14 62 -9 32 5 40 4 40 -8 0 -8 20 -31 46 -52 25 -20 43 -40 40 -42 -3 -3 -30
-7 -59 -8 -37 -1 -64 -8 -85 -24 l-31 -22 -3 58 c-3 57 -4 58 -35 61 -26 3
-34 -2 -49 -27 -10 -17 -24 -31 -31 -31 -8 0 -16 -7 -19 -15 -4 -8 -17 -15
-29 -15 -13 0 -27 -5 -30 -10 -11 -18 -26 0 -15 19 11 22 2 88 -18 119 -13 21
-13 22 10 22 13 0 35 11 48 23 l25 24 3 -24 c3 -21 8 -23 55 -23z m-1489 -2
c9 -12 14 -24 12 -26 -9 -8 -46 19 -46 33 0 22 17 18 34 -7z m161 -31 c1 -16
6 -31 12 -35 5 -4 13 -17 17 -28 21 -67 109 -112 238 -121 58 -4 69 -2 87 16
12 12 24 21 29 21 4 0 29 18 56 40 26 22 50 40 53 40 2 0 17 -7 33 -15 16 -8
35 -13 42 -10 8 3 29 -6 48 -20 19 -14 42 -25 52 -25 9 0 27 -13 40 -30 13
-18 31 -30 45 -30 19 0 23 -5 23 -29 0 -37 40 -71 82 -71 21 0 39 10 60 33 17
17 44 39 62 47 19 9 32 24 34 38 5 31 40 50 82 45 19 -2 44 -5 55 -6 11 -1 25
-6 32 -10 6 -4 32 -5 56 -3 35 3 53 12 81 41 20 19 36 40 36 45 0 18 26 10 28
-7 6 -61 16 -95 29 -100 8 -3 33 8 57 25 36 26 49 30 81 25 l38 -6 -22 -19
c-13 -10 -40 -18 -60 -18 -23 -1 -50 -11 -75 -28 -32 -23 -39 -33 -41 -67 -5
-59 -20 -92 -52 -107 -18 -9 -29 -22 -31 -40 -2 -14 -12 -34 -23 -44 -10 -9
-19 -26 -19 -36 0 -11 -11 -22 -27 -28 -16 -6 -35 -15 -43 -20 -8 -6 -34 -19
-57 -30 -37 -16 -44 -25 -54 -64 -10 -42 -15 -47 -52 -57 -43 -11 -214 -3
-238 12 -11 6 -9 12 8 31 41 45 38 83 -7 89 -24 4 -25 7 -27 84 -1 44 4 104
12 132 7 29 9 55 5 58 -11 7 -15 0 -34 -56 -12 -33 -14 -65 -9 -129 6 -90 14
-110 44 -110 26 0 24 -16 -6 -52 -29 -34 -30 -41 -10 -62 8 -8 15 -20 15 -26
0 -7 20 -32 45 -57 25 -24 45 -52 45 -63 0 -10 5 -22 10 -25 17 -10 11 -25 -9
-25 -18 0 -74 -55 -83 -81 -4 -11 -14 -11 -59 -1 -30 7 -76 17 -104 22 -40 7
-57 17 -85 50 -39 44 -58 49 -96 24 -16 -11 -37 -15 -63 -11 -44 6 -108 44
-117 70 -3 10 -18 20 -33 23 -29 6 -76 70 -90 121 -6 23 -15 29 -51 35 -26 5
-48 3 -55 -2 -15 -12 -45 28 -45 60 0 38 -39 98 -83 129 -75 51 -75 53 -37
132 38 78 35 100 -15 109 -35 6 -69 65 -78 136 -4 27 -9 59 -13 72 -8 27 13
30 31 5 19 -26 82 -24 130 3 51 30 70 27 70 -9z m-248 -149 c16 1 27 -8 39
-31 20 -38 31 -47 61 -47 34 0 35 -14 2 -75 -43 -81 -38 -108 29 -160 61 -46
81 -76 82 -121 0 -17 7 -37 15 -44 22 -18 18 -28 -9 -23 -18 4 -32 -2 -48 -20
-14 -14 -40 -27 -65 -32 -36 -6 -51 -2 -103 26 -33 17 -93 63 -132 101 -68 66
-83 74 -138 80 -21 3 -25 9 -27 38 -3 33 1 38 65 80 l67 45 3 55 c3 51 6 58
50 97 35 32 52 41 67 36 11 -3 30 -6 42 -5z m-143 -27 c-28 -17 -32 -25 -38
-84 -5 -41 -13 -67 -21 -71 -8 -3 -61 -36 -117 -74 -57 -37 -108 -71 -114 -75
-7 -4 -22 1 -34 11 l-22 18 21 42 c22 44 28 82 11 82 -6 0 -15 12 -21 26 -8
23 -5 34 18 68 15 23 28 42 28 43 1 1 18 4 39 7 21 3 40 7 43 9 2 3 16 -1 30
-8 19 -10 32 -11 52 -3 22 10 86 22 141 27 8 0 1 -8 -16 -18z m2006 5 c6 -8
27 -20 46 -26 46 -16 95 -87 71 -105 -8 -6 -48 -12 -89 -13 -97 -3 -111 -8
-104 -35 4 -12 9 -38 13 -57 6 -36 47 -90 69 -90 7 0 2 -11 -12 -25 -14 -14
-35 -47 -46 -73 -11 -26 -47 -76 -80 -112 -33 -36 -67 -73 -76 -83 -11 -12
-24 -16 -48 -11 -29 5 -35 2 -58 -32 -26 -39 -33 -64 -17 -64 5 0 15 -15 22
-32 7 -18 21 -39 31 -46 10 -7 18 -24 18 -37 0 -19 -7 -25 -34 -30 -19 -4 -43
-4 -54 -1 -12 4 -26 0 -37 -10 -15 -15 -18 -14 -50 20 -18 20 -35 43 -39 51
-9 24 -54 28 -171 15 -62 -7 -120 -10 -129 -7 -25 10 -2 45 40 63 21 9 34 21
34 32 0 32 -33 87 -72 121 -50 43 -48 54 5 46 168 -25 257 -2 257 69 0 24 28
56 48 56 9 0 24 8 34 17 11 10 34 22 51 28 21 6 37 22 48 44 8 18 23 38 32 43
9 5 17 20 17 33 0 15 7 26 21 30 25 8 48 58 53 117 3 35 10 46 37 65 20 14 48
23 69 23 20 0 45 7 56 15 24 18 29 18 44 1z m181 -146 c6 -16 15 -30 20 -30 5
0 9 -10 9 -21 0 -12 5 -39 12 -61 10 -34 9 -40 -7 -52 -18 -13 -18 -15 5 -70
20 -50 29 -60 69 -79 25 -12 47 -22 49 -23 2 -1 -9 -20 -23 -43 -31 -46 -28
-67 12 -77 15 -4 46 -22 70 -40 24 -18 60 -36 81 -39 20 -3 52 -13 71 -21 19
-8 78 -18 132 -21 113 -7 129 0 129 54 0 20 4 32 10 28 6 -3 7 -18 4 -32 -4
-16 -2 -28 7 -34 11 -7 9 -9 -7 -9 -11 0 -28 -8 -37 -18 -15 -16 -15 -20 2
-48 18 -30 18 -31 0 -42 -26 -16 -24 -24 11 -63 26 -27 30 -39 28 -73 -3 -38
-6 -42 -55 -66 -67 -34 -90 -55 -98 -91 -4 -17 -15 -31 -28 -35 -12 -4 -44
-28 -72 -53 -27 -26 -63 -56 -79 -66 -15 -10 -38 -35 -51 -54 -13 -21 -43 -46
-71 -61 -27 -14 -57 -31 -66 -39 -21 -17 -24 -75 -6 -133 10 -33 9 -44 -6 -68
-9 -16 -20 -53 -23 -82 -5 -42 -12 -57 -40 -81 -18 -16 -41 -42 -50 -58 -24
-41 -51 -37 -70 8 -8 21 -25 61 -37 88 -145 321 -173 391 -185 461 -6 34 -13
111 -15 170 -2 60 -4 112 -5 117 -1 4 -10 7 -20 7 -12 0 -29 -17 -45 -44 -35
-59 -43 -63 -74 -34 -15 14 -37 32 -49 40 -22 14 -22 14 13 27 51 19 43 45
-16 49 -53 3 -78 26 -54 49 8 8 23 13 34 10 21 -5 100 10 112 21 11 11 -11 80
-30 94 -9 7 -25 29 -34 49 -15 33 -15 39 -1 58 11 17 21 20 46 16 30 -6 37 -1
111 80 43 47 91 112 106 143 15 31 40 68 54 81 32 30 33 49 2 57 -35 8 -62 43
-69 86 l-5 36 84 7 c70 6 88 11 107 31 12 13 23 24 25 24 2 0 8 -13 13 -30z
m-2511 -45 c0 -14 -4 -25 -8 -25 -5 0 -15 -12 -22 -27 -8 -18 -14 -23 -17 -15
-6 16 26 92 39 92 4 0 8 -11 8 -25z m149 -137 c1 -12 -6 -18 -19 -18 -36 0
-90 -28 -90 -46 0 -10 9 -27 20 -39 24 -26 17 -55 -13 -55 -11 0 -31 -10 -43
-21 -34 -32 -56 -19 -48 28 3 21 6 65 7 98 1 34 6 59 12 58 6 -1 22 -4 36 -8
19 -5 37 2 75 28 48 33 49 34 56 13 3 -11 6 -29 7 -38z m-211 -54 c-4 -48 -9
-89 -12 -91 -3 -3 -11 9 -18 28 -12 29 -11 39 7 91 11 32 22 58 25 58 3 0 2
-39 -2 -86z m398 -53 c112 -106 166 -135 241 -125 52 6 56 5 88 -26 27 -26 37
-31 48 -22 11 9 23 -4 59 -66 26 -42 49 -90 52 -107 7 -34 63 -107 117 -154
48 -41 98 -61 152 -61 56 0 71 -16 62 -68 -8 -48 -40 -86 -85 -101 -127 -42
-203 -63 -259 -71 -58 -8 -69 -14 -111 -55 -40 -39 -51 -45 -67 -37 -23 12
-194 19 -211 8 -7 -4 -12 -15 -12 -24 -1 -21 -32 14 -92 103 -22 33 -59 78
-83 100 -36 34 -43 48 -49 95 -7 56 -53 149 -84 172 -9 7 -25 27 -34 43 -9 17
-37 67 -63 111 -29 52 -53 84 -67 87 -16 5 -19 11 -14 29 3 13 6 34 6 47 0 20
3 22 12 13 18 -18 46 -15 75 8 14 11 34 20 43 20 19 0 50 40 50 63 0 8 -9 22
-20 32 -29 26 -25 33 25 46 25 6 48 16 51 21 4 6 24 8 45 5 32 -4 55 -20 125
-86z m2423 -75 c9 -8 37 -24 64 -36 26 -12 62 -37 80 -55 29 -29 41 -34 109
-40 42 -4 81 -4 87 -1 7 5 11 -4 11 -23 0 -16 -4 -32 -9 -36 -16 -9 -204 17
-228 31 -12 8 -35 14 -51 14 -27 0 -101 44 -117 69 -3 6 -17 11 -31 11 -29 0
-30 12 -4 48 23 31 65 40 89 18z m-2062 -53 c20 -30 11 -29 -23 2 -23 22 -25
27 -13 41 13 16 14 16 18 -2 2 -10 10 -28 18 -41z m2910 -11 c7 -9 19 -25 28
-34 24 -24 15 -52 -18 -56 -35 -4 -94 -60 -102 -98 -14 -57 -57 -134 -75 -134
-20 0 -40 -45 -40 -89 0 -20 -2 -23 -10 -11 -5 8 -10 27 -10 41 0 28 -23 44
-43 32 -7 -4 3 8 21 26 41 41 39 71 -3 83 -16 5 -45 6 -62 3 -25 -4 -33 -2
-33 8 0 8 -15 29 -32 46 l-33 32 70 -2 c39 -2 76 1 83 5 7 4 12 22 12 39 0 29
5 34 54 55 29 13 67 37 82 53 25 26 34 29 64 24 19 -3 40 -14 47 -23z m133
-132 c0 -37 -19 -91 -40 -115 -10 -11 -21 -30 -24 -41 -9 -29 19 -57 48 -50
23 6 37 -14 70 -96 10 -27 21 -38 35 -38 14 0 21 -7 21 -19 0 -21 -36 -71 -51
-71 -6 0 -33 -10 -60 -21 -34 -15 -49 -27 -49 -40 0 -11 -6 -28 -12 -39 -11
-16 -9 -26 7 -57 11 -21 24 -41 29 -45 5 -3 11 -36 12 -72 1 -38 8 -76 16 -89
8 -12 20 -47 27 -77 7 -30 18 -65 24 -78 9 -19 8 -25 -3 -32 -12 -7 -17 -2
-22 23 -3 18 -20 83 -37 146 -17 62 -31 122 -31 134 0 25 -27 57 -48 57 -9 0
-37 -18 -64 -41 -68 -57 -84 -51 -80 32 3 58 1 69 -22 96 -14 17 -26 38 -26
47 0 9 -18 36 -40 60 -47 50 -49 65 -15 97 15 15 25 35 25 52 0 35 16 67 34
67 14 0 76 117 76 144 0 30 49 75 87 78 33 3 38 7 46 38 5 19 14 38 20 42 15
9 47 -55 47 -92z m-444 68 c32 -11 48 -36 35 -56 -6 -9 -133 -8 -149 2 -5 3
-8 15 -7 27 3 37 60 49 121 27z m-94 -135 c14 -16 31 -38 37 -51 11 -20 17
-22 60 -16 65 8 74 -8 27 -51 -40 -36 -43 -47 -21 -65 11 -9 18 -10 29 -1 11
9 15 7 20 -11 3 -13 6 -31 6 -42 0 -16 -2 -16 -19 5 l-18 23 -51 -22 c-28 -12
-61 -22 -74 -22 -23 0 -24 2 -20 59 4 50 1 65 -18 92 -21 28 -22 32 -7 41 21
11 22 32 2 48 -8 7 -15 19 -15 26 0 23 35 16 62 -13z m-2292 -34 c0 -26 -2
-30 -15 -19 -11 9 -12 16 -2 31 16 25 17 24 17 -12z m290 1 c0 -5 -7 -10 -15
-10 -8 0 -15 -3 -16 -7 -4 -55 -10 -75 -33 -111 -14 -23 -31 -42 -37 -42 -28
0 -97 24 -117 40 -31 26 -20 40 30 40 51 0 96 21 138 65 34 35 50 43 50 25z
m3004 -161 c14 -7 30 -25 35 -41 7 -19 21 -33 42 -40 l32 -11 -34 -18 c-72
-37 -130 -130 -107 -173 5 -10 40 -51 77 -91 84 -91 124 -169 125 -247 1 -73
-20 -103 -103 -143 -40 -19 -68 -41 -77 -58 -15 -28 -51 -53 -62 -42 -3 3 -1
15 6 26 7 11 10 29 7 40 -4 12 -1 21 10 25 9 4 22 19 30 34 8 16 25 30 42 33
15 3 39 15 51 28 21 19 23 27 18 73 -4 28 -6 71 -6 95 0 42 -18 83 -57 126
-10 11 -44 51 -77 88 -56 65 -58 69 -41 87 13 15 15 25 8 47 -8 23 -18 29 -56
37 -26 4 -47 13 -47 19 0 6 -14 26 -31 43 l-31 32 48 7 c27 4 65 13 84 20 43
17 82 18 114 4z m-208 -113 c9 -28 22 -36 60 -36 38 0 52 -25 29 -50 -24 -26
-18 -43 31 -90 25 -25 60 -65 76 -90 17 -25 40 -52 50 -61 13 -10 19 -25 16
-45 -3 -25 -8 -30 -40 -35 -35 -5 -38 -4 -38 18 0 13 -9 41 -20 63 -11 22 -20
49 -20 60 0 12 -10 31 -23 43 -12 12 -30 34 -40 50 -21 33 -33 34 -65 5 -16
-16 -37 -23 -63 -24 l-39 0 0 43 c0 28 -5 46 -14 49 -22 9 -39 59 -31 95 7 29
9 31 20 16 19 -26 45 -20 58 13 10 27 12 28 29 13 10 -8 20 -25 24 -37z
m-3020 -214 l26 -62 -29 -29 c-15 -16 -33 -36 -40 -44 -7 -8 -37 -21 -67 -27
-30 -6 -74 -24 -98 -40 -24 -16 -48 -30 -54 -30 -7 0 -31 -11 -54 -24 -31 -18
-52 -23 -77 -19 -24 4 -46 -1 -78 -18 -55 -29 -61 -24 -86 66 -19 68 -17 108
7 154 12 22 20 25 81 27 37 2 89 -2 115 -9 l48 -11 46 46 c41 41 51 46 105 52
32 4 59 11 59 16 0 9 34 18 58 16 7 0 25 -29 38 -64z m3173 -233 c24 -9 38 -9
54 0 43 21 62 9 65 -44 4 -55 -3 -64 -50 -74 -22 -5 -37 -16 -46 -35 -15 -30
-66 -66 -95 -66 -19 0 -59 41 -65 68 -2 9 -6 40 -9 69 -4 42 -1 55 16 72 24
24 78 28 130 10z m-255 -520 c-9 -15 26 -22 51 -11 21 10 27 7 49 -19 18 -21
26 -43 26 -67 0 -47 23 -112 44 -127 20 -15 21 -25 1 -25 -8 0 -14 5 -12 11 1
6 -23 24 -53 40 -63 34 -90 57 -90 75 0 6 -11 32 -25 55 -15 27 -25 59 -25 84
l1 40 19 -24 c11 -12 17 -27 14 -32z"/>
<path d="M6770 4750 c-8 -5 -23 -11 -33 -14 -20 -6 -15 -20 23 -66 l20 -25 20
24 c23 26 26 61 8 79 -14 14 -17 14 -38 2z m17 -57 c-3 -3 -11 -2 -17 2 -9 6
-9 10 1 16 14 8 27 -7 16 -18z"/>
<path d="M7006 3838 c-14 -44 -15 -72 -5 -84 9 -11 9 -24 -1 -58 -10 -37 -15
-42 -34 -39 -16 3 -30 -4 -50 -27 -22 -27 -26 -39 -22 -77 6 -59 15 -68 63
-56 32 8 38 13 37 34 -1 22 11 38 27 39 3 0 23 -12 44 -26 42 -28 61 -26 75
10 5 15 22 28 47 36 21 7 53 21 71 32 33 20 43 48 17 48 -9 0 -15 9 -15 24 0
22 -6 26 -46 32 -65 9 -88 24 -129 78 -35 45 -71 60 -79 34z m49 -38 c10 -32
84 -88 126 -95 29 -5 42 -14 52 -35 14 -26 13 -29 -10 -39 -13 -6 -31 -11 -40
-11 -9 0 -31 -16 -49 -35 l-34 -36 -28 21 c-30 22 -47 25 -99 14 -36 -7 -44
-28 -15 -39 16 -6 16 -7 -2 -17 -15 -9 -22 -7 -33 8 -18 24 -17 37 7 67 13 16
33 27 53 29 28 3 33 7 40 43 10 48 10 59 5 108 -5 40 15 53 27 17z"/>
<path d="M6978 3476 c-9 -9 -20 -11 -30 -5 -31 17 -67 -65 -49 -110 10 -23 9
-35 -3 -65 -30 -73 -136 -174 -136 -130 0 26 -43 12 -50 -16 -4 -14 -19 -44
-33 -66 -23 -37 -28 -40 -61 -36 -20 2 -62 1 -93 -3 -45 -5 -63 -13 -91 -41
-19 -18 -43 -36 -53 -39 -11 -4 -19 -12 -19 -18 0 -7 -18 -25 -40 -41 -49 -37
-57 -56 -31 -78 14 -10 21 -28 21 -50 0 -26 7 -39 30 -56 16 -12 33 -22 38
-22 13 0 56 120 53 145 -2 11 -8 26 -13 33 -8 9 -6 12 6 12 10 0 16 -8 16 -23
0 -31 18 -47 53 -47 19 0 30 6 34 18 2 9 19 24 36 32 40 19 44 58 9 76 -19 9
-20 13 -8 17 27 10 45 -3 48 -35 5 -49 28 -56 76 -22 23 16 42 34 42 39 0 6
19 10 43 11 27 0 57 10 83 27 35 22 43 23 55 12 8 -8 19 -11 24 -7 21 15 45
76 45 115 1 56 14 113 32 131 8 8 23 39 32 70 18 55 18 57 -3 96 -12 23 -21
47 -21 54 0 25 -26 38 -42 22z m42 -81 c23 -14 -2 -125 -32 -146 -13 -9 -38
-109 -38 -154 -1 -41 -23 -84 -34 -66 -8 12 -28 5 -80 -27 -32 -20 -46 -23
-82 -17 -35 5 -44 3 -44 -8 0 -9 -15 -28 -32 -43 l-33 -27 -3 29 c-5 40 -12
45 -71 46 -41 0 -61 -6 -94 -28 -23 -16 -53 -29 -67 -29 -20 0 -26 -6 -28 -26
-2 -15 4 -34 14 -43 13 -14 14 -22 5 -44 -6 -15 -15 -40 -21 -56 -15 -42 -40
-17 -40 41 0 36 -4 45 -22 53 -22 9 -22 9 -3 15 11 4 31 22 45 40 14 19 30 35
37 35 6 0 25 16 40 35 33 40 79 52 176 49 l58 -2 27 49 c15 27 33 49 41 49 29
0 89 36 110 65 11 17 31 42 43 57 11 15 22 35 23 45 1 10 6 26 10 36 4 10 3
29 -4 43 -15 34 9 85 38 77 10 -2 22 1 27 8 5 9 10 4 16 -18 5 -18 13 -35 18
-38z m-490 -455 c-8 -5 -21 -10 -29 -10 -8 0 -23 -8 -33 -17 -16 -14 -18 -14
-13 -1 7 18 41 36 70 37 17 1 17 -1 5 -9z m38 -32 c-3 -7 -13 -14 -24 -16 -10
-2 -29 -15 -41 -30 -19 -23 -23 -24 -29 -9 -8 21 12 47 37 47 10 0 21 5 24 10
9 14 37 12 33 -2z"/>
<path d="M496 3024 c-61 -16 -75 -28 -59 -52 19 -30 82 -20 115 17 28 31 30
52 5 50 -7 -1 -34 -8 -61 -15z m40 -23 c-18 -20 -63 -33 -71 -21 -10 15 20 30
79 39 5 0 1 -8 -8 -18z"/>
<path d="M5792 2327 c-33 -19 -73 -83 -79 -127 -4 -30 0 -45 16 -66 11 -15 21
-33 21 -40 0 -17 19 -18 24 -1 10 39 31 97 48 134 20 42 21 104 3 109 -5 2
-20 -2 -33 -9z m28 -42 c0 -13 -11 -50 -25 -81 -14 -31 -25 -63 -25 -72 0 -13
-3 -12 -20 3 -36 32 -22 107 27 150 35 31 43 31 43 0z"/>
<path d="M5102 1973 c-31 -3 -46 -10 -58 -28 -22 -34 -14 -68 18 -79 36 -13
74 7 95 51 14 31 12 65 -4 61 -4 -1 -27 -3 -51 -5z m24 -58 c-23 -34 -66 -35
-66 -1 0 21 5 25 38 28 47 4 48 3 28 -27z"/>
<path d="M5752 1888 c-5 -7 -13 -39 -16 -70 -6 -48 -11 -58 -27 -58 -12 0 -19
-7 -19 -20 0 -11 5 -20 10 -20 6 0 10 -13 10 -30 0 -16 9 -39 19 -49 12 -12
17 -27 14 -40 -5 -19 -1 -21 40 -21 37 0 51 -5 72 -27 19 -21 27 -25 34 -15 6
10 21 1 60 -34 43 -39 50 -49 37 -56 -9 -5 -16 -16 -16 -25 0 -13 -3 -13 -15
-3 -12 10 -18 10 -30 0 -12 -10 -15 -10 -15 3 0 8 -16 25 -35 37 -29 18 -38
20 -50 10 -22 -18 -18 -63 7 -90 12 -13 23 -34 24 -47 5 -47 39 -68 64 -38 7
8 26 15 42 15 16 0 31 6 34 15 4 8 15 15 25 15 14 0 19 7 19 26 0 15 7 32 16
38 12 9 14 21 9 49 -9 46 -28 67 -61 67 -23 0 -28 10 -27 48 1 7 -11 21 -26
30 -14 9 -32 23 -39 30 -9 8 -26 10 -48 6 -26 -5 -35 -2 -40 10 -10 25 5 66
33 92 25 23 25 27 17 86 l-9 63 -32 -2 c-17 -2 -35 2 -38 7 -9 14 -31 13 -43
-2z m74 -28 c22 0 24 -4 24 -50 0 -27 -4 -50 -10 -50 -5 0 -16 -13 -25 -30 -9
-16 -13 -30 -9 -30 4 0 1 -7 -6 -15 -10 -12 -10 -21 0 -45 11 -26 17 -30 52
-30 47 0 98 -32 98 -62 0 -19 -1 -20 -22 -4 -38 26 -109 56 -134 56 -16 0 -24
6 -24 18 0 10 -9 25 -20 35 -24 20 -26 73 -5 101 8 11 15 34 15 52 0 45 10 66
27 60 8 -3 26 -6 39 -6z m202 -362 c7 -7 12 -25 12 -41 l0 -30 -23 34 c-23 32
-25 49 -8 49 4 0 12 -5 19 -12z m-155 -64 c9 -4 17 -13 17 -21 0 -11 8 -14 29
-11 l29 4 -18 -45 c-25 -65 -59 -67 -51 -3 1 7 -9 22 -23 33 -26 21 -37 66
-13 55 6 -3 20 -9 30 -12z m147 -51 c0 -24 -25 -9 -28 17 -3 21 -2 22 12 11 9
-7 16 -20 16 -28z m-51 -24 c-18 -11 -22 -5 -14 22 7 20 8 21 17 4 8 -12 7
-20 -3 -26z m11 -24 c0 -8 -7 -15 -16 -15 -14 0 -14 3 -4 15 7 8 14 15 16 15
2 0 4 -7 4 -15z"/>
<path d="M5733 1552 c-4 -8 0 -20 8 -26 9 -6 18 -19 22 -29 5 -12 15 -17 29
-15 19 2 23 9 23 38 0 32 -2 35 -38 41 -29 5 -40 2 -44 -9z m67 -27 c0 -8 -4
-15 -9 -15 -5 0 -11 7 -15 15 -3 9 0 15 9 15 8 0 15 -7 15 -15z"/>
<path d="M5893 1494 c-7 -19 4 -29 40 -38 32 -8 37 12 9 37 -23 21 -41 22 -49
1z m41 -9 c3 -9 0 -15 -9 -15 -8 0 -15 7 -15 15 0 8 4 15 9 15 5 0 11 -7 15
-15z"/>
<path d="M5663 1426 c-4 -8 -38 -46 -74 -84 -72 -74 -85 -114 -42 -120 16 -2
36 11 72 50 98 107 102 112 88 142 -13 29 -32 34 -44 12z m13 -48 c-9 -5 -14
-13 -11 -19 4 -5 -1 -9 -9 -9 -9 0 -16 -5 -16 -11 0 -12 -51 -69 -62 -69 -5 0
-8 7 -8 15 0 8 5 15 10 15 6 0 13 7 17 16 8 21 50 63 57 57 3 -3 11 7 17 23
10 24 13 26 17 10 2 -11 -3 -23 -12 -28z m-108 -129 c-17 -10 -28 -2 -21 17 4
11 8 12 20 3 11 -10 11 -14 1 -20z"/>
<path d="M3307 1334 c-4 -4 -7 -21 -7 -38 0 -17 -7 -49 -16 -73 -15 -39 -15
-44 2 -80 16 -33 24 -38 56 -41 29 -3 43 2 63 22 32 32 26 69 -25 151 -35 57
-57 74 -73 59z m62 -88 c46 -80 40 -111 -24 -118 -44 -5 -54 33 -30 111 10 34
19 61 21 61 1 0 16 -24 33 -54z"/>
<path d="M6040 1320 c-6 -11 -16 -20 -22 -20 -7 0 -22 -12 -34 -27 -18 -23
-25 -26 -35 -15 -19 18 -34 15 -76 -14 -43 -29 -57 -49 -50 -69 5 -11 12 -11
41 -1 20 7 39 15 42 19 16 16 24 5 24 -32 0 -37 2 -40 55 -65 30 -15 59 -25
65 -21 5 3 10 23 10 43 0 33 1 35 14 16 35 -47 54 50 27 136 -23 72 -41 87
-61 50z m52 -114 c3 -27 0 -30 -27 -30 -28 -1 -30 -3 -29 -39 1 -21 -1 -36 -5
-35 -54 28 -70 45 -73 78 -4 44 -33 51 -83 20 -49 -31 -44 -8 6 25 36 23 45
25 65 15 20 -11 27 -9 56 14 18 14 39 32 47 41 13 13 16 10 28 -23 7 -20 14
-50 15 -66z"/>
<path d="M5513 1178 c-5 -7 -15 -26 -23 -41 -8 -16 -22 -33 -32 -38 -10 -5
-27 -28 -38 -49 -19 -37 -22 -39 -41 -27 -18 10 -23 9 -26 -1 -12 -33 -51 -61
-93 -69 -38 -7 -48 -14 -65 -46 -18 -34 -24 -37 -62 -37 -23 0 -45 -5 -48 -10
-11 -18 23 -58 60 -70 31 -10 41 -9 79 10 33 15 54 19 79 15 20 -4 44 -4 55
-1 30 10 92 95 92 126 0 37 21 52 67 48 28 -2 37 -7 34 -18 -10 -39 6 -99 36
-132 25 -26 24 -52 -1 -42 -8 3 -18 -1 -22 -8 -9 -14 -10 -19 -12 -65 -2 -24
-10 -36 -37 -53 -31 -19 -35 -27 -35 -63 0 -66 -6 -70 -96 -63 -44 4 -91 6
-106 7 -19 0 -28 5 -28 15 0 13 -11 15 -57 12 l-57 -3 -14 50 c-8 28 -20 53
-27 57 -22 13 -39 93 -27 127 13 35 -1 42 -19 10 -16 -31 -5 -106 20 -140 12
-15 21 -34 21 -41 0 -7 9 -32 20 -55 l19 -43 45 6 c31 5 51 2 61 -6 9 -7 30
-14 48 -16 18 -1 69 -6 114 -10 l81 -6 17 32 c10 19 14 42 10 57 -5 21 1 32
35 63 32 30 40 44 40 72 0 31 3 36 30 42 39 7 42 48 5 72 -18 12 -25 25 -25
49 0 18 -4 35 -10 37 -19 6 2 44 31 55 18 7 29 18 29 30 0 11 5 24 11 30 18
18 -14 59 -50 66 -24 5 -31 12 -31 30 0 39 -37 62 -57 35z m72 -87 c31 -5 48
-22 35 -35 -5 -5 -10 -19 -10 -29 0 -17 -5 -18 -68 -12 -60 6 -70 4 -95 -15
-19 -15 -27 -31 -27 -53 0 -23 -10 -43 -36 -70 -35 -37 -39 -38 -84 -32 -37 5
-54 2 -83 -15 -39 -23 -58 -21 -97 10 l-25 21 27 -12 c39 -17 77 -4 90 32 12
34 35 49 77 49 34 0 71 30 71 57 0 15 2 15 14 -2 12 -17 16 -17 31 -5 9 7 25
30 35 49 10 20 30 47 45 61 15 14 31 36 36 49 l10 24 17 -34 c9 -19 26 -36 37
-38z"/>
<path d="M4220 1085 c-12 -15 16 -85 35 -85 13 0 145 -137 145 -151 0 -6 21
-36 47 -67 25 -31 59 -84 74 -117 20 -42 53 -84 109 -140 44 -44 80 -83 80
-87 0 -4 16 -19 35 -34 29 -21 38 -24 50 -14 8 7 25 10 39 6 34 -9 50 23 48
97 -1 50 1 57 18 57 10 0 21 4 24 9 8 12 -19 63 -44 86 -19 17 -21 17 -38 2
-35 -32 -92 16 -92 76 0 32 -23 61 -74 91 -24 14 -46 32 -50 41 -3 8 -14 15
-24 15 -36 0 -169 98 -196 144 -28 48 -43 58 -75 49 -12 -3 -31 1 -43 9 -38
24 -56 28 -68 13z m112 -45 c29 0 36 -6 58 -46 18 -32 41 -55 81 -80 31 -19
62 -41 69 -49 7 -8 21 -15 31 -15 10 0 31 -11 46 -26 15 -14 44 -35 63 -47 25
-17 36 -32 41 -57 7 -47 36 -100 53 -100 8 0 16 -5 18 -12 4 -10 13 -10 41 -1
33 10 38 9 47 -7 7 -13 6 -19 -5 -24 -11 -4 -15 -22 -15 -68 0 -70 -9 -92 -33
-83 -8 4 -24 2 -34 -3 -16 -9 -34 6 -123 100 -57 60 -112 128 -122 151 -10 22
-43 73 -73 112 -30 39 -55 77 -55 83 0 19 -148 165 -159 157 -6 -3 -11 -2 -11
4 0 5 -3 17 -6 26 -6 16 -5 16 24 1 17 -9 46 -16 64 -16z"/>
<path d="M1238 910 c-35 -36 -35 -47 -2 -81 21 -22 28 -42 35 -101 13 -118 11
-189 -9 -227 -27 -55 -46 -61 -81 -27 -33 31 -97 149 -126 231 -23 62 -35 77
-35 43 0 -34 20 -88 66 -182 69 -139 126 -177 179 -120 38 41 48 95 41 214 -3
58 -9 115 -12 128 -5 17 -3 21 9 16 15 -5 71 18 81 35 6 10 -16 61 -26 61 -5
0 -8 9 -8 20 0 17 -7 20 -42 20 -34 -1 -49 -7 -70 -30z m77 0 c13 11 14 10 9
-3 -3 -8 2 -27 11 -41 16 -25 16 -25 -22 -35 -32 -9 -40 -8 -57 8 -18 18 -18
21 -2 36 9 9 16 23 16 32 0 13 3 13 15 3 12 -10 18 -10 30 0z"/>
<path d="M4240 912 c0 -9 43 -42 55 -42 4 0 5 10 3 23 -2 16 -11 23 -30 25
-16 2 -28 -1 -28 -6z m45 -12 c3 -6 -1 -7 -9 -4 -18 7 -21 14 -7 14 6 0 13 -4
16 -10z"/>
<path d="M6176 888 c-20 -32 -38 -94 -34 -116 2 -10 -4 -27 -12 -37 -13 -15
-12 -19 9 -36 26 -21 70 -25 72 -6 1 6 0 20 -1 30 -1 10 5 24 13 30 30 25 30
87 -1 87 -13 0 -13 2 1 18 10 10 17 26 17 35 0 26 -47 22 -64 -5z m23 -34
c-11 -14 -10 -18 4 -29 19 -14 14 -42 -11 -61 -9 -6 -13 -21 -10 -36 4 -21 1
-24 -19 -20 -27 5 -30 17 -7 26 11 4 14 13 10 29 -9 36 31 151 42 118 2 -7 -2
-19 -9 -27z"/>
<path d="M667 857 c-50 -50 -109 -163 -132 -252 -17 -67 -20 -165 -5 -165 6 0
10 19 10 43 0 98 68 271 135 346 42 47 58 50 79 19 14 -23 66 -195 66 -220 0
-10 -26 -14 -110 -14 -100 -1 -131 -6 -119 -18 2 -3 57 -6 123 -8 65 -2 120
-7 123 -11 3 -4 8 -47 11 -94 7 -84 23 -118 35 -72 9 34 -20 193 -57 318 -54
179 -84 204 -159 128z"/>
<path d="M2494 835 c-9 -64 6 -454 18 -461 21 -13 26 22 21 133 -6 108 -5 113
14 113 35 0 140 59 177 100 58 64 59 109 5 138 -32 17 -124 11 -168 -11 -43
-21 -41 -22 -41 8 0 42 -18 28 -26 -20z m230 -1 c25 -10 19 -50 -14 -87 -30
-35 -135 -97 -164 -97 -20 0 -28 32 -24 105 3 57 4 59 38 71 37 13 138 18 164
8z"/>
<path d="M2576 793 c-26 -4 -28 -7 -23 -40 6 -36 23 -63 38 -63 14 0 49 62 49
88 0 23 -4 24 -64 15z m34 -30 c0 -5 -5 -15 -10 -23 -9 -13 -11 -13 -19 0 -5
8 -7 18 -5 22 6 10 34 11 34 1z"/>
<path d="M5975 837 c-24 -18 -41 -22 -88 -20 -32 2 -67 8 -78 14 -16 8 -29 7
-57 -7 -51 -24 -71 -52 -72 -99 0 -22 -7 -49 -15 -59 -8 -11 -15 -32 -15 -47
0 -15 -4 -31 -10 -34 -19 -11 -10 -44 16 -61 22 -15 24 -22 19 -55 -8 -47 8
-79 39 -79 30 0 36 15 37 103 0 60 2 68 11 47 32 -75 56 -115 69 -115 8 0 19
-6 25 -14 22 -28 48 -8 61 49 14 62 11 70 -23 70 -14 0 -26 6 -28 13 -2 6 -8
26 -13 44 -9 27 -8 34 11 52 12 12 27 21 33 21 16 0 46 38 38 49 -10 17 -69
13 -116 -9 -43 -19 -44 -19 -63 0 -11 10 -16 25 -13 34 5 13 24 16 99 16 51 0
110 5 131 11 40 11 71 47 65 76 -5 26 -29 26 -63 0z m35 -20 c0 -24 -48 -37
-134 -37 -115 0 -145 -7 -152 -36 -7 -26 -24 -33 -24 -10 0 19 39 66 55 66 7
0 15 5 17 12 3 9 14 7 40 -5 49 -23 125 -22 163 2 37 24 35 24 35 8z m-229
-154 c13 3 44 13 68 22 24 9 49 14 55 11 6 -2 -3 -9 -21 -16 -17 -6 -34 -18
-37 -26 -3 -8 -12 -14 -20 -14 -19 0 -28 -28 -12 -37 7 -5 16 -23 20 -42 7
-41 23 -61 45 -61 13 0 16 -8 13 -41 -4 -37 -5 -39 -21 -25 -10 9 -22 16 -28
16 -14 0 -53 79 -53 107 0 26 -25 36 -51 22 -15 -7 -20 -19 -18 -42 5 -72 -1
-128 -12 -121 -7 4 -9 24 -6 55 5 43 3 50 -20 67 -22 16 -24 22 -14 40 6 11
11 29 11 38 0 10 8 34 18 54 l17 37 21 -25 c16 -18 28 -23 45 -19z"/>
<path d="M4334 836 c-6 -15 24 -76 37 -76 11 0 20 32 14 51 -9 27 -44 44 -51
25z m36 -25 c5 -11 6 -22 1 -25 -4 -3 -13 6 -19 19 -14 30 2 34 18 6z"/>
<path d="M1917 787 c-49 -77 -96 -127 -118 -127 -13 0 -27 17 -45 55 -40 84
-63 83 -28 -1 20 -48 52 -84 75 -84 26 0 74 44 111 102 l33 51 6 -89 c22 -313
22 -314 37 -314 13 0 14 16 8 108 -3 59 -9 162 -13 230 -7 142 -15 150 -66 69z"/>
<path d="M1496 718 c-14 -247 -14 -338 0 -338 19 0 23 36 26 244 2 136 0 190
-9 193 -7 3 -13 -28 -17 -99z"/>
<path d="M2177 792 c-14 -15 -34 -47 -42 -72 -18 -48 -45 -196 -45 -242 0 -49
17 -30 26 29 8 53 11 57 39 60 17 2 54 8 84 13 30 6 56 8 58 6 2 -2 7 -42 10
-90 6 -88 13 -106 31 -83 21 25 -17 247 -60 347 -30 69 -57 78 -101 32z m67
-29 c17 -34 47 -135 42 -140 -4 -4 -135 -33 -149 -33 -10 0 1 64 21 115 34 88
61 106 86 58z"/>
<path d="M1676 748 c-17 -142 -2 -383 22 -352 10 12 3 404 -7 404 -5 0 -11
-24 -15 -52z"/>
<path d="M995 775 c-15 -30 -13 -341 2 -356 7 -7 14 -11 16 -8 1 2 0 90 -3
194 -4 134 -8 184 -15 170z"/>
<path d="M664 766 c-6 -17 2 -36 17 -36 12 0 12 37 -1 45 -6 3 -13 -1 -16 -9z"/>
<path d="M720 754 c0 -14 4 -23 10 -19 6 3 10 15 10 26 0 10 -4 19 -10 19 -5
0 -10 -12 -10 -26z"/>
<path d="M4404 745 c-4 -8 -3 -23 1 -32 6 -17 7 -17 21 1 8 11 14 26 14 33 0
18 -29 16 -36 -2z"/>
<path d="M6430 725 c-14 -7 -42 -17 -62 -20 -56 -10 -50 -36 15 -66 46 -21 52
-27 52 -54 0 -18 11 -44 25 -62 22 -27 31 -31 70 -31 25 1 72 -9 104 -20 33
-12 69 -22 81 -22 26 0 77 -53 95 -97 12 -31 11 -34 -19 -62 -33 -31 -36 -38
-21 -61 7 -12 15 -12 42 -2 40 14 100 6 144 -20 l32 -19 4 93 c6 108 -6 279
-22 308 -6 11 -29 24 -53 30 -23 6 -57 17 -75 25 -54 24 -75 19 -133 -35 -30
-27 -60 -50 -67 -50 -22 0 -61 53 -62 85 -1 43 -10 53 -71 75 -29 11 -54 20
-54 20 0 -1 -11 -7 -25 -15z m75 -33 c34 -9 46 -24 40 -51 -4 -20 3 -36 33
-69 44 -50 77 -55 113 -16 13 15 42 40 63 55 35 26 42 28 60 16 12 -7 47 -19
78 -26 32 -7 60 -16 63 -21 3 -5 7 -85 9 -178 l3 -169 -28 14 c-32 16 -104 21
-134 9 -15 -5 -13 -1 8 16 31 27 34 50 12 101 -21 51 -70 95 -113 102 -49 9
-134 35 -149 47 -7 5 -21 7 -32 3 -14 -4 -29 2 -48 19 -23 22 -25 27 -12 42
12 15 9 20 -25 50 -22 19 -49 34 -60 35 -13 0 -8 4 14 11 19 5 39 14 45 19 5
5 16 7 25 3 8 -3 24 -9 35 -12z"/>
<path d="M754 686 c-8 -21 -32 -28 -56 -15 -28 15 -35 3 -13 -22 29 -31 95 -9
95 32 0 22 -18 25 -26 5z"/>
<path d="M4426 671 c-3 -4 1 -17 9 -27 10 -15 16 -16 26 -7 6 6 9 19 6 27 -7
17 -32 22 -41 7z"/>
<path d="M5978 659 c-32 -18 -20 -36 27 -43 25 -4 45 -11 45 -16 0 -5 7 -7 15
-4 28 11 17 44 -20 60 -40 16 -44 17 -67 3z m66 -19 c14 -5 26 -14 26 -20 0
-8 -6 -8 -19 0 -11 5 -31 11 -45 12 -15 1 -26 6 -26 10 0 11 34 10 64 -2z"/>
<path d="M6153 654 c-9 -23 13 -40 32 -24 12 10 13 16 4 26 -15 18 -28 18 -36
-2z m27 -4 c0 -5 -4 -10 -10 -10 -5 0 -10 5 -10 10 0 6 5 10 10 10 6 0 10 -4
10 -10z"/>
<path d="M4480 610 c0 -5 5 -10 10 -10 6 0 10 5 10 10 0 6 -4 10 -10 10 -5 0
-10 -4 -10 -10z"/>
<path d="M6202 579 c-38 -11 -50 -32 -30 -52 9 -10 37 -13 95 -11 108 3 124
13 83 54 -22 22 -88 26 -148 9z m124 -25 c18 -14 16 -15 -24 -11 -24 3 -56 1
-73 -3 -17 -5 -29 -5 -29 0 0 10 52 28 86 29 11 1 29 -6 40 -15z"/>
<path d="M4512 564 c2 -11 11 -20 22 -22 13 -3 17 1 14 14 -2 11 -11 20 -22
22 -13 3 -17 -1 -14 -14z"/>
<path d="M6073 543 c-6 -16 28 -53 48 -53 22 0 21 34 0 52 -29 22 -40 23 -48
1z m47 -18 c10 -12 10 -15 -3 -15 -8 0 -20 7 -27 15 -10 12 -10 15 3 15 8 0
20 -7 27 -15z"/>
<path d="M1872 518 c-18 -18 -15 -36 7 -48 27 -14 41 -13 41 5 0 8 -7 15 -16
15 -11 0 -14 6 -9 20 7 22 -5 26 -23 8z"/>
<path d="M1772 503 c1 -5 -3 -18 -10 -30 -11 -19 -10 -23 2 -23 17 0 48 39 40
52 -6 10 -35 11 -32 1z"/>
<path d="M6563 432 c-16 -10 -26 -56 -18 -81 4 -15 15 -21 34 -21 24 0 30 5
35 30 10 55 -17 94 -51 72z m27 -46 c0 -14 -4 -28 -10 -31 -6 -4 -10 7 -10 24
0 17 5 31 10 31 6 0 10 -11 10 -24z"/>
<path d="M6465 410 c-9 -15 3 -30 24 -30 23 0 31 9 24 26 -6 16 -39 19 -48 4z
m35 -10 c0 -5 -4 -10 -10 -10 -5 0 -10 5 -10 10 0 6 5 10 10 10 6 0 10 -4 10
-10z"/>
<path d="M4862 370 c-49 -30 -41 -60 20 -80 26 -8 50 -18 54 -22 4 -5 34 -8
66 -8 33 0 67 -4 76 -9 24 -13 118 -25 181 -23 35 1 64 -4 82 -15 21 -13 32
-14 40 -6 8 8 19 6 42 -5 18 -9 52 -16 77 -15 25 1 81 3 125 4 44 1 101 0 128
-3 32 -5 69 -1 115 12 37 10 90 21 117 25 45 6 48 5 30 -8 -11 -8 -32 -17 -47
-21 -37 -9 -65 -50 -48 -71 19 -23 49 -18 78 13 15 15 53 38 84 51 97 39 100
74 3 53 -41 -9 -45 -8 -45 9 0 17 -8 19 -65 19 -35 0 -84 -7 -108 -15 -34 -11
-64 -13 -144 -6 -55 5 -111 15 -124 21 -19 11 -24 10 -35 -5 -11 -14 -22 -17
-58 -12 -25 4 -54 11 -63 16 -10 6 -35 13 -56 16 -28 4 -37 10 -35 23 2 14 -8
18 -52 23 -30 3 -67 11 -82 19 -23 11 -32 10 -62 -4 -44 -21 -46 -21 -146 14
-101 35 -105 36 -148 10z m81 -6 c3 -4 37 -17 74 -30 75 -26 133 -30 151 -12
9 9 21 9 50 0 22 -7 51 -12 65 -12 17 0 24 -5 23 -17 0 -10 5 -17 12 -15 7 1
27 -4 45 -11 17 -8 38 -12 45 -9 7 2 18 -1 25 -7 7 -5 43 -13 80 -17 61 -6 67
-5 67 12 0 14 2 16 9 6 5 -9 37 -15 94 -17 48 -2 90 -6 95 -9 5 -3 33 1 63 9
30 8 78 15 108 15 63 0 65 -9 3 -12 -23 -1 -42 -5 -42 -9 0 -9 -8 -9 -245 -12
-142 -2 -209 1 -231 9 -17 7 -44 12 -60 12 -16 -1 -39 4 -51 10 -11 6 -35 9
-54 6 -19 -3 -63 0 -99 6 -36 6 -108 18 -160 25 -95 14 -160 33 -160 47 0 19
78 46 93 32z m1177 -144 c-8 -6 -23 -10 -33 -10 -10 0 -28 -5 -39 -11 -14 -8
-23 -8 -31 0 -8 8 -4 11 14 12 13 0 40 6 59 13 37 14 54 11 30 -4z m-116 -39
c7 -11 -22 -37 -51 -45 -28 -9 -31 9 -6 36 17 19 48 24 57 9z"/>
<path d="M6405 328 c-11 -6 -27 -14 -35 -18 -21 -10 -25 -59 -6 -66 26 -10 76
33 76 67 0 31 -4 34 -35 17z m-5 -48 c-27 -21 -40 -25 -40 -12 0 15 24 32 45
32 19 0 18 -2 -5 -20z"/>
<path d="M6072 309 c-25 -10 -29 -37 -6 -46 20 -8 64 13 64 31 0 18 -29 25
-58 15z m28 -19 c0 -5 -7 -10 -16 -10 -8 0 -12 5 -9 10 3 6 10 10 16 10 5 0 9
-4 9 -10z"/>
<path d="M6174 265 c-3 -8 -2 -20 2 -26 5 -9 10 -7 15 7 7 19 8 19 8 0 1 -15
4 -17 12 -9 15 15 4 43 -16 43 -9 0 -18 -7 -21 -15z"/>
<path d="M6280 265 c0 -8 7 -15 15 -15 8 0 15 7 15 15 0 8 -7 15 -15 15 -8 0
-15 -7 -15 -15z"/>
<path d="M5645 170 c-10 -16 4 -30 31 -30 14 0 27 -7 30 -15 9 -21 41 -19 54
4 8 16 6 23 -12 35 -25 18 -93 22 -103 6z m95 -25 c0 -19 -9 -19 -34 0 -19 14
-19 15 7 15 17 0 27 -5 27 -15z"/>
</g>
</svg>
